<svg xmlns="http://www.w3.org/2000/svg" viewBox="0 0 180 180" role="img" aria-label="Desk fan placeholder">
  <circle cx="90" cy="74" r="47" fill="#dbe6f4" stroke="#5e6f85" stroke-width="5" />
  <circle cx="90" cy="74" r="8" fill="#4b5b70" />
  <path d="M90 31c18 0 33 14 33 33-18 3-31-5-38-18-6-10-4-12 5-15z" fill="#8fa7c3" />
  <path d="M52 71c4-17 23-28 40-24-2 18-13 29-28 31-12 1-14-1-12-7z" fill="#97b2d0" />
  <path d="M87 117c-15-8-22-30-14-46 16 7 24 21 23 36-1 11-3 13-9 10z" fill="#7f9abd" />
  <rect x="85" y="121" width="10" height="29" rx="4" fill="#5d6f87" />
  <rect x="64" y="146" width="52" height="12" rx="6" fill="#3f4f63" />
</svg>
