<svg xmlns="http://www.w3.org/2000/svg" viewBox="0 0 64 64" role="img" aria-label="PaperShoot favicon">
  <defs>
    <linearGradient id="deskBg" x1="0%" y1="0%" x2="100%" y2="100%">
      <stop offset="0%" stop-color="#f4e7d2" />
      <stop offset="100%" stop-color="#c99768" />
    </linearGradient>
    <radialGradient id="paperShade" cx="35%" cy="30%" r="70%">
      <stop offset="0%" stop-color="#ffffff" />
      <stop offset="70%" stop-color="#e8edf4" />
      <stop offset="100%" stop-color="#bcc6d3" />
    </radialGradient>
  </defs>
  <rect x="4" y="4" width="56" height="56" rx="16" fill="url(#deskBg)" />
  <path
    id="throwArc"
    d="M17 19C24 11 36 10 44 18c3 3 5 7 6 12"
    fill="none"
    stroke="#d37b3c"
    stroke-linecap="round"
    stroke-width="4"
  />
  <g id="trashBin" transform="translate(31 24)">
    <rect x="4" y="0" width="18" height="4" rx="2" fill="#566173" />
    <rect x="2" y="4" width="22" height="5" rx="2.5" fill="#6f7d93" />
    <path d="M4 9h18l-1.8 18a4 4 0 0 1-4 3H9.8a4 4 0 0 1-4-3Z" fill="#d6deea" stroke="#465163" stroke-width="2.5" />
    <path d="M10 13v11M14 13v11M18 13v11" stroke="#7d8898" stroke-linecap="round" stroke-width="2.2" />
  </g>
  <g id="paperBall" transform="translate(10 11)">
    <circle cx="11" cy="11" r="10.5" fill="url(#paperShade)" stroke="#8d97a5" stroke-width="2.2" />
    <path d="M5 10c3-3 10-3 13 0M7 15c3 2 8 2 11 0M9 6c2 2 4 2 6 0" fill="none" stroke="#9ca5b3" stroke-linecap="round" stroke-width="1.8" />
  </g>
</svg>
